# File created by Blade
# Date/Time:  Tue Apr 07 20:13:55 2015
# Frame Rate: 120.000 fps
#------------------------------------------------------
:FULLY-SPECIFIED
:DEGREES
3099
root 3.237408 33.055189 -8.643565 -16.490260 -13.796281 -24.352460
Spine 27.564787 -24.137414 4.805143
Head 4.178557 -8.334636 10.516343
LeftShoulder 9.335813 26.098291 33.173315
LeftArm 92.252695 21.986874 -50.710666
LeftForeArm -53.994139 -0.000000 53.150133
LeftHand 18.183127 -0.000000 -23.290481
LeftHandThumb1 -26.253704 0.000000 33.147579
RightShoulder 1.978695 -3.382634 -16.600281
RightArm 22.179537 -21.519789 64.368677
RightForeArm 56.653660 -0.000000 87.349330
RightHand 0.667892 -0.000000 30.612691
RightHandThumb1 -24.326973 -0.000000 -32.862282
LeftUpLeg 12.928094 5.443937 21.406076
LeftLeg 25.701216 -0.000000 -0.000000
LeftFoot -21.614302 2.898960 -21.480810
LeftToeBase -1.750917 -0.000000 0.000000
RightUpLeg -112.486743 -29.424154 0.781355
RightLeg 68.301263 -0.000000 -0.000000
RightFoot 34.895469 -7.573595 -12.493654
RightToeBase 40.176303 -0.000000 -0.000000
3100
root 3.203110 33.077223 -8.596145 -16.603907 -13.479186 -24.483665
Spine 27.416685 -24.275606 4.825608
Head 4.417858 -8.478543 10.389925
LeftShoulder 9.337921 25.992577 33.325794
LeftArm 92.214015 22.201065 -50.602995
LeftForeArm -53.683083 -0.000000 53.909104
LeftHand 18.150898 -0.000000 -22.873298
LeftHandThumb1 -26.253704 0.000000 33.147579
RightShoulder 1.676258 -3.586352 -16.785638
RightArm 21.924032 -21.454548 64.722563
RightForeArm 56.228104 -0.000000 87.824994
RightHand 0.700689 0.000000 30.447214
RightHandThumb1 -24.326973 -0.000000 -32.862282
LeftUpLeg 12.998780 5.454531 21.712863
LeftLeg 25.726452 -0.000000 -0.000000
LeftFoot -21.421629 2.393992 -21.754691
LeftToeBase -1.624294 -0.000000 0.000000
RightUpLeg -112.818094 -29.930383 0.591001
RightLeg 69.627375 -0.000000 -0.000000
RightFoot 34.867438 -7.662453 -12.223359
RightToeBase 40.155379 -0.000000 -0.000000
3101
root 3.163941 33.103709 -8.560206 -16.619719 -13.242628 -24.747203
Spine 27.207342 -24.417396 5.020176
Head 4.677103 -8.607017 10.217827
LeftShoulder 9.324184 25.898931 33.479635
LeftArm 92.222020 22.405889 -50.469453
LeftForeArm -53.276964 0.000000 54.553516
LeftHand 18.107605 0.000000 -22.397253
LeftHandThumb1 -26.253704 0.000000 33.147579
RightShoulder 1.397620 -3.744842 -16.955607
RightArm 21.705969 -21.399709 65.027133
RightForeArm 55.851849 -0.000000 88.252924
RightHand 0.735354 -0.000000 30.305648
RightHandThumb1 -24.326973 -0.000000 -32.862282
LeftUpLeg 12.987503 5.458533 22.151186
LeftLeg 25.786792 -0.000000 -0.000000
LeftFoot -21.255138 1.907439 -22.092041
LeftToeBase -1.437746 -0.000000 0.000000
RightUpLeg -113.276007 -30.376961 0.794621
RightLeg 70.932118 -0.000000 -0.000000
RightFoot 34.918019 -7.545189 -12.133871
RightToeBase 40.019717 -0.000000 -0.000000
3102
root 3.125384 33.132966 -8.526677 -16.603162 -13.028057 -25.031882
Spine 26.962254 -24.586963 5.240847
Head 5.000579 -8.650141 10.026014
LeftShoulder 9.290637 25.846122 33.634770
LeftArm 92.266249 22.584797 -50.303778
LeftForeArm -52.984175 -0.000000 55.127123
LeftHand 18.095683 -0.000000 -21.997598
LeftHandThumb1 -26.253704 0.000000 33.147579
RightShoulder 1.175181 -3.862692 -17.083652
RightArm 21.492649 -21.354783 65.275146
RightForeArm 55.503955 -0.000000 88.660470
RightHand 0.702697 0.000000 30.156693
RightHandThumb1 -24.326973 -0.000000 -32.862282
LeftUpLeg 12.946503 5.410278 22.573625
LeftLeg 25.845017 -0.000000 -0.000000
LeftFoot -21.035243 1.585530 -22.237379
LeftToeBase -1.487185 -0.000000 0.000000
RightUpLeg -113.746281 -30.797676 1.061101
RightLeg 72.238922 -0.000000 -0.000000
RightFoot 34.969073 -7.367808 -11.997169
RightToeBase 39.956313 -0.000000 -0.000000
3103
root 3.068753 33.179773 -8.522129 -16.327196 -13.032597 -25.793490
Spine 26.594816 -24.713632 6.083786
Head 5.301503 -8.700301 9.769307
LeftShoulder 9.233971 25.804951 33.729309
LeftArm 92.348793 22.700755 -50.159465
LeftForeArm -52.668337 0.000000 55.594014
LeftHand 18.103336 -0.000000 -21.737393
LeftHandThumb1 -26.253704 0.000000 33.147579
RightShoulder 0.982154 -3.826891 -17.199835
RightArm 21.217484 -21.340892 65.457160
RightForeArm 55.181440 0.000000 89.039032
RightHand 0.678858 0.000000 30.020922
RightHandThumb1 -24.326973 -0.000000 -32.862282
LeftUpLeg 12.724572 5.520799 23.560517
LeftLeg 25.975202 -0.000000 -0.000000
LeftFoot -20.751310 1.227332 -22.310455
LeftToeBase -1.647465 -0.000000 0.000000
RightUpLeg -114.161760 -31.065293 1.680177
RightLeg 73.569625 -0.000000 -0.000000
RightFoot 34.787246 -7.225284 -11.263068
RightToeBase 39.836325 -0.000000 -0.000000
3104
root 3.037120 33.211427 -8.489806 -16.261980 -12.919541 -26.106906
Spine 26.287861 -24.861807 6.425630
Head 5.696142 -8.726012 9.479939
LeftShoulder 9.178745 25.802094 33.872279
LeftArm 92.358541 22.792239 -50.102060
LeftForeArm -51.841900 0.000000 56.064776
LeftHand 18.168916 -0.000000 -21.906202
LeftHandThumb1 -26.253704 0.000000 33.147579
RightShoulder 0.794861 -3.829058 -17.323282
RightArm 20.997027 -21.400173 65.591176
RightForeArm 54.892180 -0.000000 89.403334
RightHand 0.638927 -0.000000 30.005859
RightHandThumb1 -24.326973 -0.000000 -32.862282
LeftUpLeg 12.702545 5.403333 23.922008
LeftLeg 25.954371 -0.000000 -0.000000
LeftFoot -20.507700 1.229981 -22.259225
LeftToeBase -1.901713 -0.000000 0.000000
RightUpLeg -114.528090 -31.359858 1.891310
RightLeg 74.837914 -0.000000 -0.000000
RightFoot 34.713833 -7.057266 -11.003219
RightToeBase 39.774803 -0.000000 -0.000000
3105
root 3.008559 33.241742 -8.459063 -16.159235 -12.836602 -26.406408
Spine 25.948584 -25.002381 6.796214
Head 6.062189 -8.753370 9.152523
LeftShoulder 9.043044 25.845345 33.987103
LeftArm 92.509403 22.921646 -49.593120
LeftForeArm -51.915663 -0.000000 56.181393
LeftHand -0.415312 -0.000000 -17.639006
LeftHandThumb1 -26.253704 0.000000 33.147579
RightShoulder 0.606957 -3.744787 -17.453977
RightArm 20.720179 -21.520458 65.751510
RightForeArm 54.534602 -0.000000 89.791570
RightHand 0.633789 0.000000 29.961489
RightHandThumb1 -24.326973 -0.000000 -32.862282
LeftUpLeg 12.654235 5.289802 24.233875
LeftLeg 25.920788 -0.000000 -0.000000
LeftFoot -20.287429 1.395955 -22.067535
LeftToeBase -2.091174 -0.000000 0.000000
RightUpLeg -114.917185 -31.598243 2.115136
RightLeg 76.088695 -0.000000 -0.000000
RightFoot 34.669980 -6.966355 -10.766262
RightToeBase 39.593787 -0.000000 -0.000000
3106
root 2.977102 33.274091 -8.435178 -15.953014 -12.895205 -26.779121
Spine 25.520395 -25.041042 7.327526
Head 6.449828 -8.764704 8.822739
LeftShoulder 8.987448 25.726198 34.074541
LeftArm 92.455611 23.065431 -49.414384
LeftForeArm -51.916735 0.000000 56.742206
LeftHand -0.434228 -0.000000 -16.928451
LeftHandThumb1 -26.253704 0.000000 33.147579
RightShoulder 0.438644 -3.665981 -17.595519
RightArm 20.444114 -21.633629 65.921201
RightForeArm 54.176714 -0.000000 90.156983
RightHand 0.608461 -0.000000 29.910284
RightHandThumb1 -24.326973 -0.000000 -32.862282
LeftUpLeg 12.579166 5.243401 24.615003
LeftLeg 25.859160 -0.000000 -0.000000
LeftFoot -20.001441 1.744574 -21.628666
LeftToeBase -2.740268 -0.000000 0.000000
RightUpLeg -115.359577 -31.673253 2.491432
RightLeg 77.300528 -0.000000 -0.000000
RightFoot 34.579190 -6.991107 -10.575423
RightToeBase 39.611638 -0.000000 -0.000000
3107
root 2.952449 33.305948 -8.408962 -15.738220 -12.937610 -27.101232
Spine 25.073075 -25.038105 7.841139
Head 6.788835 -8.817813 8.559651
LeftShoulder 8.907317 25.524836 34.126692
LeftArm 92.484790 23.217549 -49.043773
LeftForeArm -51.925133 -0.000000 57.175498
LeftHand -0.232022 -0.000000 -16.544338
LeftHandThumb1 -26.253704 0.000000 33.147579
RightShoulder 0.218016 -3.643521 -17.712729
RightArm 20.197565 -21.742839 66.064292
RightForeArm 53.927491 -0.000000 90.493459
RightHand 0.413505 -0.000000 29.187419
RightHandThumb1 -24.326973 -0.000000 -32.862282
LeftUpLeg 12.497197 5.115515 24.861321
LeftLeg 25.748711 -0.000000 -0.000000
LeftFoot -19.717007 2.349560 -21.088971
LeftToeBase -3.759006 -0.000000 0.000000
RightUpLeg -115.837128 -31.750874 2.856574
RightLeg 78.514512 -0.000000 -0.000000
RightFoot 34.545771 -7.004538 -10.484283
RightToeBase 39.234514 -0.000000 -0.000000
3108
root 2.929652 33.336075 -8.382866 -15.514561 -13.004164 -27.433222
Spine 24.623257 -25.065755 8.391193
Head 7.118677 -8.841320 8.228336
LeftShoulder 8.860555 25.396131 34.226919
LeftArm 92.417429 23.296201 -48.792622
LeftForeArm -51.798128 -0.000000 57.753302
LeftHand -0.459658 -0.000000 -16.313460
LeftHandThumb1 -26.253704 0.000000 33.147579
RightShoulder 0.030687 -3.599083 -17.894400
RightArm 19.936012 -21.876049 66.290306
RightForeArm 53.691680 -0.000000 90.806585
RightHand 0.369673 -0.000000 29.118391
RightHandThumb1 -24.326973 -0.000000 -32.862282
LeftUpLeg 12.427361 4.955422 25.078609
LeftLeg 25.604821 -0.000000 -0.000000
LeftFoot -19.480441 3.082071 -20.444762
LeftToeBase -4.587849 -0.000000 0.000000
RightUpLeg -116.323090 -31.794093 3.272381
RightLeg 79.700756 -0.000000 -0.000000
RightFoot 34.504166 -7.056000 -10.352099
RightToeBase 39.232963 -0.000000 -0.000000
3109
root 2.908304 33.362494 -8.360557 -15.262408 -13.093432 -27.737867
Spine 24.159340 -25.088596 8.921757
Head 7.413126 -8.846412 7.908231
LeftShoulder 8.765168 25.406759 34.325417
LeftArm 92.497105 23.241279 -48.363264
LeftForeArm -51.729014 -0.000000 58.341569
LeftHand -0.355132 -0.000000 -15.963614
LeftHandThumb1 -26.253704 0.000000 33.147579
RightShoulder -0.110021 -3.594918 -18.085156
RightArm 19.701720 -22.010267 66.529865
RightForeArm 53.458585 -0.000000 91.178932
RightHand 0.350510 -0.000000 29.052478
RightHandThumb1 -24.326973 -0.000000 -32.862282
LeftUpLeg 12.341978 4.765460 25.218105
LeftLeg 25.440848 -0.000000 -0.000000
LeftFoot -19.311303 3.995508 -19.699230
LeftToeBase -5.355801 -0.000000 0.000000
RightUpLeg -116.826605 -31.787229 3.650312
RightLeg 80.877734 -0.000000 -0.000000
RightFoot 34.505971 -6.995982 -10.278443
RightToeBase 38.979887 -0.000000 -0.000000
